<svg width="82" height="27" viewBox="0 0 82 27" fill="none" xmlns="http://www.w3.org/2000/svg">
<path d="M14.8703 1.58826C11.6198 1.69242 8.542 3.01961 6.30046 5.28373C4.05891 7.54786 2.83313 10.5676 2.88734 13.692C2.94156 16.8163 4.27143 19.7951 6.59027 21.9862C8.90912 24.1773 12.0312 25.4052 15.2836 25.4052C18.5359 25.4052 21.658 24.1773 23.9769 21.9862C26.2957 19.7951 27.6256 16.8163 27.6798 13.692C27.734 10.5676 26.5082 7.54786 24.2667 5.28373C22.0252 3.01961 18.9474 1.69242 15.6968 1.58826H14.8703ZM32.2275 1.58826C28.9769 1.69242 25.8991 3.01961 23.6576 5.28373C21.4161 7.54786 20.1903 10.5676 20.2445 13.692C20.2987 16.8163 21.6286 19.7951 23.9474 21.9862C26.2663 24.1773 29.3884 25.4052 32.6407 25.4052C35.8931 25.4052 39.0152 24.1773 41.334 21.9862C43.6529 19.7951 44.9828 16.8163 45.037 13.692C45.0912 10.5676 43.8654 7.54786 41.6239 5.28373C39.3823 3.01961 36.3045 1.69242 33.054 1.58826H32.2275ZM49.5846 1.58826C46.3341 1.69242 43.2563 3.01961 41.0147 5.28373C38.7732 7.54786 37.5474 10.5676 37.6016 13.692C37.6558 16.8163 38.9857 19.7951 41.3046 21.9862C43.6234 24.1773 46.7455 25.4052 49.9979 25.4052C53.2502 25.4052 56.3723 24.1773 58.6912 21.9862C61.01 19.7951 62.3399 16.8163 62.3941 13.692C62.4483 10.5676 61.2225 7.54786 58.981 5.28373C56.7394 3.01961 53.6617 1.69242 50.4111 1.58826H49.5846ZM66.9417 1.58826C63.6912 1.69242 60.6134 3.01961 58.3719 5.28373C56.1303 7.54786 54.9046 10.5676 54.9588 13.692C55.013 16.8163 56.3429 19.7951 58.6617 21.9862C60.9805 24.1773 64.1027 25.4052 67.355 25.4052C70.6074 25.4052 73.7295 24.1773 76.0483 21.9862C78.3672 19.7951 79.697 16.8163 79.7512 13.692C79.8055 10.5676 78.5797 7.54786 76.3381 5.28373C74.0966 3.01961 71.0188 1.69242 67.7683 1.58826H66.9417Z" stroke="#C9C8C9"/>
</svg>
